<svg width="13" height="13" viewBox="0 0 13 13" fill="none" xmlns="http://www.w3.org/2000/svg">
<path d="M5.66667 11C6.84999 10.9998 7.99921 10.6036 8.93134 9.87468L11.862 12.8053L12.8047 11.8627L9.874 8.93201C10.6033 7.99979 10.9997 6.8503 11 5.66668C11 2.72601 8.60734 0.333344 5.66667 0.333344C2.726 0.333344 0.333336 2.72601 0.333336 5.66668C0.333336 8.60734 2.726 11 5.66667 11ZM5.66667 1.66668C7.87267 1.66668 9.66667 3.46068 9.66667 5.66668C9.66667 7.87268 7.87267 9.66668 5.66667 9.66668C3.46067 9.66668 1.66667 7.87268 1.66667 5.66668C1.66667 3.46068 3.46067 1.66668 5.66667 1.66668Z" fill="#828282"/>
</svg>
